<svg width="3357" height="2196" xmlns="http://www.w3.org/2000/svg" xmlns:xlink="http://www.w3.org/1999/xlink" xml:space="preserve" overflow="hidden"><g transform="translate(1 1)"><rect x="0" y="0" width="3354" height="2193" fill="#FFFFFF"/><g><path d="M248.5 1541.55 3303.5 1541.55M248.5 1198.54 3303.5 1198.54M248.5 855.528 3303.5 855.528M248.5 512.517 3303.5 512.517M248.5 169.5 3303.5 169.5" stroke="#D9D9D9" stroke-width="3.4375" stroke-linejoin="round" stroke-miterlimit="10" fill="none"/></g><g><path d="M248.5 1884.5 3303.5 1884.5" stroke="#D9D9D9" stroke-width="3.4375" stroke-linejoin="round" stroke-miterlimit="10" fill="none" fill-rule="evenodd"/></g><g><path d="M388 1517 665.022 1463.05 943.031 1458.05 1221.04 1462.05 1498.05 1458 1776.06 1458.05 2054.07 1466.05 2332.08 1461.05 2609.09 1460.05 2887.09 1461.05 3165 1462.05" stroke="#156082" stroke-width="10.3125" stroke-linecap="round" stroke-linejoin="round" stroke-miterlimit="10" fill="none"/></g><g><path d="M388 1316.04 665.022 1288.04 943.031 1285.04 1221.04 1282 1498.05 1287.04 1776.06 1338 2054.07 1300.04 2332.08 1286.04 2609.09 1288.04 2887.09 1288.04 3165 1288.04" stroke="#E97132" stroke-width="10.3125" stroke-linecap="round" stroke-linejoin="round" stroke-miterlimit="10" fill="none"/></g><g><path d="M388 1173 665.022 1172.04 943.031 1138.04 1221.04 1140.04 1498.05 1133.04 1776.06 1137.04 2054.07 1129 2332.08 1158.04 2609.09 1151.04 2887.09 1157.04 3165 1162.04" stroke="#196B24" stroke-width="10.3125" stroke-linecap="round" stroke-linejoin="round" stroke-miterlimit="10" fill="none"/></g><g><path d="M388 1159.04 665.022 1143 943.031 1169.04 1221.04 1150.04 1498.05 1146.04 1776.06 1146.04 2054.07 1150.04 2332.08 1153.04 2609.09 1165.04 2887.09 1169.04 3165 1176" stroke="#0F9ED5" stroke-width="10.3125" stroke-linecap="round" stroke-linejoin="round" stroke-miterlimit="10" fill="none"/></g><g><path d="M388 1279 665.022 1215 943.031 1221.04 1221.04 1218.04 1498.05 1219.04 1776.06 1221.04 2054.07 1219.04 2332.08 1224.04 2609.09 1229.04 2887.09 1232.04 3165 1238.04" stroke="#A02B93" stroke-width="10.3125" stroke-linecap="round" stroke-linejoin="round" stroke-miterlimit="10" fill="none"/></g><g><path d="M388 1061.03 665.022 1043.03 943.031 1050.03 1221.04 1040.03 1498.05 1039.03 1776.06 1046.03 2054.07 1039 2332.08 1053.03 2609.09 1067.03 2887.09 1067.03 3165 1074" stroke="#4EA72E" stroke-width="10.3125" stroke-linecap="round" stroke-linejoin="round" stroke-miterlimit="10" fill="none"/></g><g><path d="M388 562 665.022 348.011 943.031 317.01 1221.04 318.01 1498.05 300.01 1776.06 304.01 2054.07 290 2332.08 402.013 2609.09 414.014 2887.09 477.016 3165 491.016" stroke="#0D3A4E" stroke-width="10.3125" stroke-linecap="round" stroke-linejoin="round" stroke-miterlimit="10" fill="none"/></g><g><path d="M262.5 471.5 304.167 471.5 304.167 471.5 366.667 471.5 512.5 471.5 512.5 509.417 512.5 509.417 512.5 525.667 512.5 536.5 366.667 536.5 387.5 561.816 304.167 536.5 262.5 536.5 262.5 525.667 262.5 509.417 262.5 509.417Z" stroke="#BFBFBF" stroke-width="3.4375" stroke-linejoin="round" stroke-miterlimit="10" fill="#FFFFFF" fill-rule="evenodd"/></g><g><g><text fill="#595959" font-family="Aptos Narrow,Aptos Narrow_MSFontService,sans-serif" font-weight="400" font-stretch="semi-condensed" font-size="41" transform="matrix(1 0 0 1 277.675 518)">1929,008789</text></g></g><g><path d="M540.5 258.5 582.167 258.5 582.167 258.5 644.667 258.5 790.5 258.5 790.5 295.833 790.5 295.833 790.5 311.833 790.5 322.5 644.667 322.5 665.5 347.426 582.167 322.5 540.5 322.5 540.5 311.833 540.5 295.833 540.5 295.833Z" stroke="#BFBFBF" stroke-width="3.4375" stroke-linejoin="round" stroke-miterlimit="10" fill="#FFFFFF" fill-rule="evenodd"/></g><g><g><text fill="#595959" font-family="Aptos Narrow,Aptos Narrow_MSFontService,sans-serif" font-weight="400" font-stretch="semi-condensed" font-size="41" transform="matrix(1 0 0 1 555.42 304)">2240,447998</text></g></g><g><path d="M818.5 227.5 860 227.5 860 227.5 922.25 227.5 1067.5 227.5 1067.5 265.417 1067.5 265.417 1067.5 281.667 1067.5 292.5 922.25 292.5 943 317.816 860 292.5 818.5 292.5 818.5 281.667 818.5 265.417 818.5 265.417Z" stroke="#BFBFBF" stroke-width="3.4375" stroke-linejoin="round" stroke-miterlimit="10" fill="#FFFFFF" fill-rule="evenodd"/></g><g><g><text fill="#595959" font-family="Aptos Narrow,Aptos Narrow_MSFontService,sans-serif" font-weight="400" font-stretch="semi-condensed" font-size="41" transform="matrix(1 0 0 1 833.165 274)">2285,312988</text></g></g><g><path d="M1095.5 228.5 1137.17 228.5 1137.17 228.5 1199.67 228.5 1345.5 228.5 1345.5 265.833 1345.5 265.833 1345.5 281.833 1345.5 292.5 1199.67 292.5 1220.5 317.426 1137.17 292.5 1095.5 292.5 1095.5 281.833 1095.5 265.833 1095.5 265.833Z" stroke="#BFBFBF" stroke-width="3.4375" stroke-linejoin="round" stroke-miterlimit="10" fill="#FFFFFF" fill-rule="evenodd"/></g><g><g><text fill="#595959" font-family="Aptos Narrow,Aptos Narrow_MSFontService,sans-serif" font-weight="400" font-stretch="semi-condensed" font-size="41" transform="matrix(1 0 0 1 1110.91 274)">2284,192627</text></g></g><g><path d="M1373.5 210.5 1415.17 210.5 1415.17 210.5 1477.67 210.5 1623.5 210.5 1623.5 248.416 1623.5 248.416 1623.5 264.666 1623.5 275.5 1477.67 275.5 1498.5 300.815 1415.17 275.5 1373.5 275.5 1373.5 264.666 1373.5 248.416 1373.5 248.416Z" stroke="#BFBFBF" stroke-width="3.4375" stroke-linejoin="round" stroke-miterlimit="10" fill="#FFFFFF" fill-rule="evenodd"/></g><g><g><text fill="#595959" font-family="Aptos Narrow,Aptos Narrow_MSFontService,sans-serif" font-weight="400" font-stretch="semi-condensed" font-size="41" transform="matrix(1 0 0 1 1388.65 257)">2309,936523</text></g></g><g><path d="M1651.5 214.5 1693.17 214.5 1693.17 214.5 1755.67 214.5 1901.5 214.5 1901.5 252.417 1901.5 252.417 1901.5 268.667 1901.5 279.5 1755.67 279.5 1776.5 304.816 1693.17 279.5 1651.5 279.5 1651.5 268.667 1651.5 252.417 1651.5 252.417Z" stroke="#BFBFBF" stroke-width="3.4375" stroke-linejoin="round" stroke-miterlimit="10" fill="#FFFFFF" fill-rule="evenodd"/></g><g><g><text fill="#595959" font-family="Aptos Narrow,Aptos Narrow_MSFontService,sans-serif" font-weight="400" font-stretch="semi-condensed" font-size="41" transform="matrix(1 0 0 1 1666.4 261)">2304,249268</text></g></g><g><path d="M1929.5 200.5 1971 200.5 1971 200.5 2033.25 200.5 2178.5 200.5 2178.5 238.417 2178.5 238.417 2178.5 254.667 2178.5 265.5 2033.25 265.5 2054 290.815 1971 265.5 1929.5 265.5 1929.5 254.667 1929.5 238.417 1929.5 238.417Z" stroke="#BFBFBF" stroke-width="3.4375" stroke-linejoin="round" stroke-miterlimit="10" fill="#FFFFFF" fill-rule="evenodd"/></g><g><g><text fill="#595959" font-family="Aptos Narrow,Aptos Narrow_MSFontService,sans-serif" font-weight="400" font-stretch="semi-condensed" font-size="41" transform="matrix(1 0 0 1 1944.14 247)">2324,614502</text></g></g><g><path d="M2206.5 312.5 2248.17 312.5 2248.17 312.5 2310.67 312.5 2456.5 312.5 2456.5 350.417 2456.5 350.417 2456.5 366.667 2456.5 377.5 2310.67 377.5 2331.5 402.816 2248.17 377.5 2206.5 377.5 2206.5 366.667 2206.5 350.417 2206.5 350.417Z" stroke="#BFBFBF" stroke-width="3.4375" stroke-linejoin="round" stroke-miterlimit="10" fill="#FFFFFF" fill-rule="evenodd"/></g><g><g><text fill="#595959" font-family="Aptos Narrow,Aptos Narrow_MSFontService,sans-serif" font-weight="400" font-stretch="semi-condensed" font-size="41" transform="matrix(1 0 0 1 2221.89 359)">2161,141113</text></g></g><g><path d="M2484.5 324.5 2526.17 324.5 2526.17 324.5 2588.67 324.5 2734.5 324.5 2734.5 362.417 2734.5 362.417 2734.5 378.667 2734.5 389.5 2588.67 389.5 2609.5 414.816 2526.17 389.5 2484.5 389.5 2484.5 378.667 2484.5 362.417 2484.5 362.417Z" stroke="#BFBFBF" stroke-width="3.4375" stroke-linejoin="round" stroke-miterlimit="10" fill="#FFFFFF" fill-rule="evenodd"/></g><g><g><text fill="#595959" font-family="Aptos Narrow,Aptos Narrow_MSFontService,sans-serif" font-weight="400" font-stretch="semi-condensed" font-size="41" transform="matrix(1 0 0 1 2499.63 370)">2143,929688</text></g></g><g><path d="M2762.5 386.5 2804.17 386.5 2804.17 386.5 2866.67 386.5 3012.5 386.5 3012.5 424.416 3012.5 424.416 3012.5 440.666 3012.5 451.5 2866.67 451.5 2887.5 476.815 2804.17 451.5 2762.5 451.5 2762.5 440.666 2762.5 424.416 2762.5 424.416Z" stroke="#BFBFBF" stroke-width="3.4375" stroke-linejoin="round" stroke-miterlimit="10" fill="#FFFFFF" fill-rule="evenodd"/></g><g><g><text fill="#595959" font-family="Aptos Narrow,Aptos Narrow_MSFontService,sans-serif" font-weight="400" font-stretch="semi-condensed" font-size="41" transform="matrix(1 0 0 1 2777.38 433)">2052,967041</text></g></g><g><path d="M3040.5 400.5 3082 400.5 3082 400.5 3144.25 400.5 3289.5 400.5 3289.5 438.417 3289.5 438.417 3289.5 454.667 3289.5 465.5 3144.25 465.5 3165 490.816 3082 465.5 3040.5 465.5 3040.5 454.667 3040.5 438.417 3040.5 438.417Z" stroke="#BFBFBF" stroke-width="3.4375" stroke-linejoin="round" stroke-miterlimit="10" fill="#FFFFFF" fill-rule="evenodd"/></g><g><g><text fill="#595959" font-family="Aptos Narrow,Aptos Narrow_MSFontService,sans-serif" font-weight="400" font-stretch="semi-condensed" font-size="41" transform="matrix(1 0 0 1 3055.12 447)">2032,380371</text></g></g><g><text fill="#595959" font-family="Aptos Narrow,Aptos Narrow_MSFontService,sans-serif" font-weight="400" font-stretch="semi-condensed" font-size="41" transform="matrix(1 0 0 1 189.681 1896)">0</text></g><g><text fill="#595959" font-family="Aptos Narrow,Aptos Narrow_MSFontService,sans-serif" font-weight="400" font-stretch="semi-condensed" font-size="41" transform="matrix(1 0 0 1 147.881 1553)">500</text></g><g><text fill="#595959" font-family="Aptos Narrow,Aptos Narrow_MSFontService,sans-serif" font-weight="400" font-stretch="semi-condensed" font-size="41" transform="matrix(1 0 0 1 126.981 1210)">1000</text></g><g><text fill="#595959" font-family="Aptos Narrow,Aptos Narrow_MSFontService,sans-serif" font-weight="400" font-stretch="semi-condensed" font-size="41" transform="matrix(1 0 0 1 126.981 867)">1500</text></g><g><text fill="#595959" font-family="Aptos Narrow,Aptos Narrow_MSFontService,sans-serif" font-weight="400" font-stretch="semi-condensed" font-size="41" transform="matrix(1 0 0 1 126.981 525)">2000</text></g><g><text fill="#595959" font-family="Aptos Narrow,Aptos Narrow_MSFontService,sans-serif" font-weight="400" font-stretch="semi-condensed" font-size="41" transform="matrix(1 0 0 1 126.981 182)">2500</text></g><g><text fill="#595959" font-family="Aptos Narrow,Aptos Narrow_MSFontService,sans-serif" font-weight="400" font-stretch="semi-condensed" font-size="41" transform="matrix(1 0 0 1 356.187 1950)">100</text></g><g><text fill="#595959" font-family="Aptos Narrow,Aptos Narrow_MSFontService,sans-serif" font-weight="400" font-stretch="semi-condensed" font-size="41" transform="matrix(1 0 0 1 633.932 1950)">300</text></g><g><text fill="#595959" font-family="Aptos Narrow,Aptos Narrow_MSFontService,sans-serif" font-weight="400" font-stretch="semi-condensed" font-size="41" transform="matrix(1 0 0 1 911.677 1950)">500</text></g><g><text fill="#595959" font-family="Aptos Narrow,Aptos Narrow_MSFontService,sans-serif" font-weight="400" font-stretch="semi-condensed" font-size="41" transform="matrix(1 0 0 1 1189.42 1950)">700</text></g><g><text fill="#595959" font-family="Aptos Narrow,Aptos Narrow_MSFontService,sans-serif" font-weight="400" font-stretch="semi-condensed" font-size="41" transform="matrix(1 0 0 1 1467.17 1950)">900</text></g><g><text fill="#595959" font-family="Aptos Narrow,Aptos Narrow_MSFontService,sans-serif" font-weight="400" font-stretch="semi-condensed" font-size="41" transform="matrix(1 0 0 1 1734.46 1950)">1100</text></g><g><text fill="#595959" font-family="Aptos Narrow,Aptos Narrow_MSFontService,sans-serif" font-weight="400" font-stretch="semi-condensed" font-size="41" transform="matrix(1 0 0 1 2012.21 1950)">1300</text></g><g><text fill="#595959" font-family="Aptos Narrow,Aptos Narrow_MSFontService,sans-serif" font-weight="400" font-stretch="semi-condensed" font-size="41" transform="matrix(1 0 0 1 2289.95 1950)">1500</text></g><g><text fill="#595959" font-family="Aptos Narrow,Aptos Narrow_MSFontService,sans-serif" font-weight="400" font-stretch="semi-condensed" font-size="41" transform="matrix(1 0 0 1 2567.7 1950)">1700</text></g><g><text fill="#595959" font-family="Aptos Narrow,Aptos Narrow_MSFontService,sans-serif" font-weight="400" font-stretch="semi-condensed" font-size="41" transform="matrix(1 0 0 1 2845.44 1950)">1900</text></g><g><text fill="#595959" font-family="Aptos Narrow,Aptos Narrow_MSFontService,sans-serif" font-weight="400" font-stretch="semi-condensed" font-size="41" transform="matrix(1 0 0 1 3123.19 1950)">2100</text></g><g><text fill="#595959" font-family="Aptos Narrow,Aptos Narrow_MSFontService,sans-serif" font-weight="400" font-stretch="semi-condensed" font-size="46" transform="matrix(6.12323e-17 -1 1 6.12323e-17 100.283 1105)">MFLOPS</text></g><g><text fill="#595959" font-family="Aptos Narrow,Aptos Narrow_MSFontService,sans-serif" font-weight="400" font-stretch="semi-condensed" font-size="46" transform="matrix(1 0 0 1 1629.62 2018)">Matrix size (nxn)</text></g><g><text fill="#595959" font-family="Aptos Narrow,Aptos Narrow_MSFontService,sans-serif" font-weight="400" font-stretch="semi-condensed" font-size="64" transform="matrix(1 0 0 1 1533.89 94)">MFLOPS(n)</text></g><g><path d="M1009 2127 1097 2127" stroke="#156082" stroke-width="10.3125" stroke-linecap="round" stroke-linejoin="round" stroke-miterlimit="10" fill="none" fill-rule="evenodd"/></g><g><text fill="#595959" font-family="Aptos Narrow,Aptos Narrow_MSFontService,sans-serif" font-weight="400" font-stretch="semi-condensed" font-size="41" transform="matrix(1 0 0 1 1106.74 2138)">ge1</text></g><g><path d="M1209 2127 1297 2127" stroke="#E97132" stroke-width="10.3125" stroke-linecap="round" stroke-linejoin="round" stroke-miterlimit="10" fill="none" fill-rule="evenodd"/></g><g><text fill="#595959" font-family="Aptos Narrow,Aptos Narrow_MSFontService,sans-serif" font-weight="400" font-stretch="semi-condensed" font-size="41" transform="matrix(1 0 0 1 1305.87 2138)">ge2</text></g><g><path d="M1408 2127 1496 2127" stroke="#196B24" stroke-width="10.3125" stroke-linecap="round" stroke-linejoin="round" stroke-miterlimit="10" fill="none" fill-rule="evenodd"/></g><g><text fill="#595959" font-family="Aptos Narrow,Aptos Narrow_MSFontService,sans-serif" font-weight="400" font-stretch="semi-condensed" font-size="41" transform="matrix(1 0 0 1 1505 2138)">ge3</text></g><g><path d="M1607 2127 1695 2127" stroke="#0F9ED5" stroke-width="10.3125" stroke-linecap="round" stroke-linejoin="round" stroke-miterlimit="10" fill="none" fill-rule="evenodd"/></g><g><text fill="#595959" font-family="Aptos Narrow,Aptos Narrow_MSFontService,sans-serif" font-weight="400" font-stretch="semi-condensed" font-size="41" transform="matrix(1 0 0 1 1704.12 2138)">ge4</text></g><g><path d="M1806 2127 1894 2127" stroke="#A02B93" stroke-width="10.3125" stroke-linecap="round" stroke-linejoin="round" stroke-miterlimit="10" fill="none" fill-rule="evenodd"/></g><g><text fill="#595959" font-family="Aptos Narrow,Aptos Narrow_MSFontService,sans-serif" font-weight="400" font-stretch="semi-condensed" font-size="41" transform="matrix(1 0 0 1 1903.25 2138)">ge5</text></g><g><path d="M2005 2127 2093 2127" stroke="#4EA72E" stroke-width="10.3125" stroke-linecap="round" stroke-linejoin="round" stroke-miterlimit="10" fill="none" fill-rule="evenodd"/></g><g><text fill="#595959" font-family="Aptos Narrow,Aptos Narrow_MSFontService,sans-serif" font-weight="400" font-stretch="semi-condensed" font-size="41" transform="matrix(1 0 0 1 2102.37 2138)">ge6</text></g><g><path d="M2204 2127 2292 2127" stroke="#0D3A4E" stroke-width="10.3125" stroke-linecap="round" stroke-linejoin="round" stroke-miterlimit="10" fill="none" fill-rule="evenodd"/></g><g><text fill="#595959" font-family="Aptos Narrow,Aptos Narrow_MSFontService,sans-serif" font-weight="400" font-stretch="semi-condensed" font-size="41" transform="matrix(1 0 0 1 2301.5 2138)">ge7</text></g><rect x="0.499836" y="0.499836" width="3354" height="2193" stroke="#D9D9D9" stroke-width="3.4375" stroke-linejoin="round" stroke-miterlimit="10" fill="none"/></g></svg>